HIERARCHY
ROOT hip
{
	OFFSET 0.000000 0.000000 0.000000 
	CHANNELS 6 Xposition Yposition Zposition Xrotation Zrotation Yrotation
	JOINT abdomen
	{
		OFFSET 0.000000 3.402643 0.000000 
		CHANNELS 3 Xrotation Zrotation Yrotation
		JOINT chest
		{
			OFFSET 0.000000 8.438565 -0.680529 
			CHANNELS 3 Xrotation Zrotation Yrotation
			JOINT neck
			{
				OFFSET 0.000000 10.207942 -0.272212 
				CHANNELS 3 Xrotation Zrotation Yrotation
				JOINT head
				{
					OFFSET 0.000000 3.130431 0.000000 
					CHANNELS 3 Xrotation Zrotation Yrotation
					End Site
					{
						OFFSET 0.000000 3.130435 0.000000 
					}
				}
			}
			JOINT lCollar
			{
				OFFSET 3.470700 6.669187 -0.816635 
				CHANNELS 3 Yrotation Zrotation Xrotation
				JOINT lShldr
				{
					OFFSET 3.198488 0.000000 0.000000 
					CHANNELS 3 Zrotation Yrotation Xrotation
					JOINT lForeArm
					{
						OFFSET 10.139888 0.000000 0.000000 
						CHANNELS 3 Yrotation Zrotation Xrotation
						JOINT lHand
						{
							OFFSET 8.370511 0.000000 0.000000 
							CHANNELS 3 Zrotation Yrotation Xrotation
							End Site
							{
								OFFSET 4.083176 0.000000 0.000000 
							}
						}
					}
				}
			}
			JOINT rCollar
			{
				OFFSET -3.470700 6.669187 -0.816635 
				CHANNELS 3 Yrotation Zrotation Xrotation
				JOINT rShldr
				{
					OFFSET -3.198488 0.000000 0.000000 
					CHANNELS 3 Zrotation Yrotation Xrotation
					JOINT rForeArm
					{
						OFFSET -10.139888 0.000000 0.000000 
						CHANNELS 3 Yrotation Zrotation Xrotation
						JOINT rHand
						{
							OFFSET -8.370511 0.000000 0.000000 
							CHANNELS 3 Zrotation Yrotation Xrotation
							End Site
							{
								OFFSET -4.083176 0.000000 0.000000 
							}
						}
					}
				}
			}
		}
	}
	JOINT lThigh
	{
		OFFSET 5.308129 -1.633274 1.361059 
		CHANNELS 3 Xrotation Zrotation Yrotation
		JOINT lShin
		{
			OFFSET -2.041588 -20.007561 0.000000 
			CHANNELS 3 Xrotation Zrotation Yrotation
			JOINT lFoot
			{
				OFFSET 0.000000 -19.190928 -1.224953 
				CHANNELS 3 Xrotation Yrotation Zrotation
				End Site
				{
					OFFSET 0.000000 -2.449906 4.627600 
				}
			}
		}
	}
	JOINT rThigh
	{
		OFFSET -5.308129 -1.633274 1.361059 
		CHANNELS 3 Xrotation Zrotation Yrotation
		JOINT rShin
		{
			OFFSET 2.041588 -20.007561 0.000000 
			CHANNELS 3 Xrotation Zrotation Yrotation
			JOINT rFoot
			{
				OFFSET 0.000000 -19.190928 -1.224953 
				CHANNELS 3 Xrotation Yrotation Zrotation
				End Site
				{
					OFFSET 0.000000 -2.449906 4.627600 
				}
			}
		}
	}
}
MOTION
Frames: 16
Frame Time: 0.033333
5.155616 32.301281 -4.634623 0.107422 -3.632812 -112.138664 10.370376 -8.712459 -6.345483 -1.435548 -5.615235 26.376953 -8.603516 0.000000 0.000000 0.732422 6.562500 10.292970 2.000000 -2.000000 0.000000 -112.734375 -31.542969 16.396484 -18.189188 -1.018087 2.539233 1.649248 -3.400840 -3.509154 -2.000000 2.000000 0.000000 124.003899 53.710938 23.544922 1.120729 1.296907 2.458042 -1.668799 3.381294 -3.509732 -27.909704 38.326389 25.733849 32.797493 -3.390857 -2.323426 -2.497903 -32.619347 0.051073 -2.295629 -26.480034 -9.964450 61.988701 1.753002 3.620020 -26.903275 -24.409105 0.013077 
5.044800 32.614483 -4.577475 0.234375 -4.003903 -112.764343 10.370376 -8.712459 -6.345483 -1.484375 -3.828125 26.230471 -8.603516 0.000000 0.000000 1.650390 5.292969 10.488283 2.000000 -2.000000 0.000000 -112.539063 -32.158203 15.971366 -18.989771 -0.998004 2.547800 1.649248 -3.400840 -3.509154 -2.000000 2.000000 0.000000 121.279297 52.099609 24.050674 7.389963 1.188504 2.471076 -1.668799 3.381294 -3.509732 -26.347164 38.070953 26.476633 32.196701 -3.400392 -2.311249 -2.438408 -32.269310 0.029945 -1.485654 -26.680563 -9.837227 60.464085 1.850770 3.567099 -26.831991 -23.571291 0.041501 
4.901042 33.074989 -4.514391 0.507813 -4.335931 -113.672585 10.370376 -8.712459 -6.345483 -1.679687 -1.455078 26.025141 -8.603516 0.000000 0.000000 2.832031 3.544922 11.083985 2.000000 -2.000000 0.000000 -112.558594 -33.496090 15.019529 -20.386059 -0.977920 2.556368 1.649248 -3.400840 -3.509154 -2.000000 2.000000 0.000000 117.646484 50.625000 24.824219 15.377311 1.049095 2.511584 -1.668799 3.381294 -3.509732 -24.237955 37.863640 27.639944 31.191637 -3.449229 -2.212857 -2.173371 -31.690401 0.038605 -0.470236 -26.788906 -9.593337 58.186745 2.007271 3.470953 -26.815908 -22.207935 0.056328 
4.700555 33.712402 -4.431390 0.937500 -4.628906 -114.971497 10.370376 -8.712459 -6.345483 -1.874998 1.503906 25.713146 -8.603516 0.000000 0.000000 4.287109 1.259766 12.285372 2.000000 -2.000000 0.000000 -112.373055 -35.439453 13.535158 -23.090513 -0.946912 2.583838 1.649248 -3.400840 -3.509154 -2.000000 2.000000 0.000000 114.111328 49.960941 26.062164 23.647182 0.917668 2.581916 -1.668799 3.381294 -3.509732 -21.504208 37.568279 29.153212 29.731588 -3.496467 -2.137855 -1.755090 -30.446251 0.042745 0.837943 -26.876293 -9.301235 54.978203 2.183079 3.361620 -26.573963 -20.295364 0.042043 
4.409269 34.556217 -4.308386 1.445312 -4.843751 -116.738289 10.370376 -8.712459 -6.345483 -2.060547 4.980469 25.303581 -8.603516 0.000000 0.000000 6.191406 -1.591797 14.111058 2.000000 -2.000000 0.000000 -111.250000 -37.421875 11.644455 -27.816282 -0.866576 2.618110 1.649248 -3.400840 -3.509154 -2.000000 2.000000 0.000000 111.513672 50.185547 27.744139 31.135567 0.795400 2.662580 -1.668799 3.381294 -3.509732 -18.096975 36.982807 30.798754 27.756927 -3.544800 -2.054738 -1.426088 -28.614000 0.010760 2.371938 -27.010208 -9.004735 50.769291 2.437023 3.191600 -25.560722 -18.021301 0.038535 
4.000131 35.611237 -4.127931 1.992188 -4.873047 -119.043808 10.370376 -8.712459 -6.345483 -2.431638 8.935547 24.972219 -8.603516 0.000000 0.000000 8.691406 -4.755859 16.415207 2.000000 -2.000000 0.000000 -108.642578 -38.681644 9.511719 -34.611286 -0.763802 2.699931 1.649248 -3.400840 -3.509154 -2.000000 2.000000 0.000000 109.951172 50.654297 29.433598 37.491314 0.712708 2.735847 -1.668799 3.381294 -3.509732 -14.142741 36.035725 32.237236 25.322819 -3.638362 -1.849911 -1.415200 -26.582329 0.029433 3.953493 -27.135698 -8.859185 45.615616 2.710234 2.968991 -23.188255 -15.869243 0.034543 
3.474139 36.824825 -3.888568 2.480469 -4.667969 -121.875793 10.370376 -8.712459 -6.345483 -3.164063 13.105469 24.892578 -8.603516 0.000000 0.000000 11.796876 -7.802735 18.738909 2.000000 -2.000000 0.000000 -104.433594 -38.691406 7.298583 -42.665401 -0.669007 2.811691 1.649248 -3.400840 -3.509154 -2.000000 2.000000 0.000000 108.789063 50.488281 30.517576 42.938854 0.639763 2.809810 -1.668799 3.381294 -3.509732 -9.932289 34.676064 33.074944 22.376196 -3.709549 -1.698051 -1.901963 -24.786747 0.009272 5.241515 -27.141748 -9.029954 39.964851 2.993728 2.669546 -19.356302 -14.334977 0.027352 
2.872637 38.071053 -3.614390 2.792969 -4.169922 -125.058594 10.370376 -8.712459 -6.345483 -4.394529 17.148438 25.247021 -8.603516 0.000000 0.000000 15.253907 -10.156250 20.603748 2.000000 -2.000000 0.000000 -99.150391 -37.509766 5.390625 -50.602543 -0.584544 2.914166 1.649248 -3.400840 -3.509154 -2.000000 2.000000 0.000000 107.177734 48.994141 30.485888 48.064339 0.586900 2.875084 -1.668799 3.381294 -3.509732 -5.940019 33.041637 32.946625 19.299191 -3.777101 -1.466524 -2.828528 -23.574324 0.012444 6.032588 -26.908037 -9.450778 34.361492 3.247890 2.357313 -14.689921 -13.986401 0.031587 
2.271122 39.173401 -3.351085 2.890625 -3.525390 -128.310547 10.370376 -8.712459 -6.345483 -5.947266 20.556639 25.908201 -8.603516 0.000000 0.000000 18.359377 -11.630858 21.736315 2.000000 -2.000000 0.000000 -93.681641 -35.781254 4.144681 -57.299446 -0.519572 3.017823 1.649248 -3.400840 -3.509154 -2.000000 2.000000 0.000000 104.814453 46.123047 29.218750 53.443298 0.532857 2.959850 -1.668799 3.381294 -3.509732 -2.637673 31.385473 31.802689 16.428694 -3.844678 -1.277199 -3.806429 -22.616379 -0.010968 6.356784 -26.426046 -9.963037 29.344437 3.451792 2.059891 -10.415562 -14.708035 0.018104 
1.755102 39.967609 -3.146788 2.773438 -2.910156 -131.201660 10.370376 -8.712459 -6.345483 -7.363280 23.007814 26.703035 -8.603516 0.000000 0.000000 20.292971 -12.373047 22.224472 2.000000 -2.000000 0.000000 -89.052734 -34.296871 3.798828 -62.151062 -0.485020 3.103760 1.649248 -3.400840 -3.509154 -2.000000 2.000000 0.000000 102.177734 42.363281 27.203846 59.271049 0.487380 3.064695 -1.668799 3.381294 -3.509732 -0.363999 29.937204 30.113092 14.281114 -3.893186 -1.136392 -4.540496 -21.284649 0.011925 6.424848 -25.780247 -10.268270 25.360397 3.580536 1.830518 -7.865208 -16.100952 0.006559 
1.389825 40.375725 -3.028973 2.539063 -2.421875 -133.320313 10.370376 -8.712459 -6.345483 -8.125000 24.521486 27.382814 -8.603516 0.000000 0.000000 20.595705 -12.998046 22.429445 2.000000 -2.000000 0.000000 -85.996094 -33.613285 4.066860 -65.147850 -0.461983 3.161052 1.649248 -3.400840 -3.509154 -2.000000 2.000000 0.000000 100.068359 38.603512 25.156250 65.050201 0.442488 3.159796 -1.668799 3.381294 -3.509732 0.837776 29.000959 28.647644 13.179139 -3.912745 -1.058089 -4.945509 -19.503883 -0.014139 6.491828 -25.210276 -10.123620 22.692026 3.668286 1.635484 -7.492200 -17.284378 0.003687 
1.199659 40.443802 -2.994527 2.343750 -2.236328 -134.550781 10.370376 -8.712459 -6.345483 -7.929688 25.283205 27.806904 -8.603516 0.000000 0.000000 19.384768 -14.013672 22.722246 2.000000 -2.000000 0.000000 -84.794922 -33.720707 4.467235 -66.612274 -0.451055 3.179952 1.649248 -3.400840 -3.509154 -2.000000 2.000000 0.000000 98.867188 35.644531 23.720703 69.872734 0.428017 3.237244 -1.668799 3.381294 -3.509732 1.189256 28.639387 27.993895 13.107349 -3.914343 -1.053255 -5.122711 -17.642298 0.000845 6.716914 -24.928125 -9.801789 21.319212 3.706455 1.552987 -8.795117 -17.626513 0.034943 
1.166077 40.317257 -3.020380 2.304688 -2.285156 -135.039444 10.370376 -8.712459 -6.345483 -6.894531 25.644531 27.982742 -8.603516 0.000000 0.000000 17.382814 -15.488280 23.337238 2.000000 -2.000000 0.000000 -85.244141 -34.052731 4.687500 -67.012451 -0.450465 3.189698 1.649248 -3.400840 -3.509154 -2.000000 2.000000 0.000000 98.378906 33.808594 23.193357 72.937874 0.414726 3.295126 -1.668799 3.381294 -3.509732 1.128789 28.656466 28.340158 13.666804 -3.912617 -1.113106 -5.231021 -16.426207 -0.011743 7.049482 -25.007881 -9.575598 21.041113 3.707510 1.542456 -10.582019 -17.065784 0.015683 
1.241468 40.165524 -3.084071 2.402344 -2.519531 -135.039063 10.370376 -8.712459 -6.345483 -5.449219 25.742188 27.958984 -8.603516 0.000000 0.000000 15.498048 -17.001951 24.225664 2.000000 -2.000000 0.000000 -86.669922 -34.013672 4.667969 -66.895264 -0.450465 3.189698 1.649248 -3.400840 -3.509154 -2.000000 2.000000 0.000000 98.027344 32.929688 23.403748 74.089806 0.403796 3.314027 -1.668799 3.381294 -3.509732 1.052878 28.786077 29.276606 14.230322 -3.895037 -1.123291 -5.260000 -16.244089 -0.020962 7.411891 -25.253576 -9.647783 21.319210 3.706470 1.552989 -11.918296 -16.037148 0.027660 
1.369350 40.106560 -3.174033 2.558594 -2.802734 -134.814926 10.370376 -8.712459 -6.345483 -4.267577 25.673828 27.709309 -8.603516 0.000000 0.000000 14.423828 -18.017578 25.166016 2.000000 -2.000000 0.000000 -88.281250 -33.203125 4.633325 -66.661095 -0.451055 3.179952 1.649248 -3.400840 -3.509154 -2.000000 2.000000 0.000000 97.373047 32.480469 23.931028 73.884933 0.404387 3.304282 -1.668799 3.381294 -3.509732 1.255573 28.850664 30.057924 14.209531 -3.894678 -1.141303 -5.127329 -16.586210 0.027158 7.779968 -25.404013 -9.890257 21.637426 3.697581 1.583850 -12.367650 -15.304179 0.012620 
1.502085 40.172993 -3.282370 2.744141 -2.988281 -134.512222 10.370376 -8.712459 -6.345483 -3.808591 25.527346 27.172176 -8.603516 0.000000 0.000000 14.453126 -18.134766 25.875868 2.000000 -2.000000 0.000000 -89.511719 -31.728514 4.785155 -66.553680 -0.451055 3.179952 1.649248 -3.400840 -3.509154 -2.000000 2.000000 0.000000 96.464844 31.992189 24.321579 73.142960 0.414726 3.295126 -1.668799 3.381294 -3.509732 1.735846 28.834978 29.680826 13.352462 -3.911925 -1.070792 -4.746141 -16.281075 -0.006683 8.200334 -25.211039 -10.079802 21.567753 3.697480 1.588607 -12.183815 -15.248283 0.035172 
